<svg width="48" height="49" viewBox="0 0 48 49" fill="none" xmlns="http://www.w3.org/2000/svg">
<path d="M24 30.615C25.5913 30.615 27.1174 29.9697 28.2426 28.821C29.3679 27.6724 30 26.1144 30 24.49C30 22.8655 29.3679 21.3076 28.2426 20.159C27.1174 19.0103 25.5913 18.365 24 18.365C22.4087 18.365 20.8826 19.0103 19.7574 20.159C18.6321 21.3076 18 22.8655 18 24.49C18 26.1144 18.6321 27.6724 19.7574 28.821C20.8826 29.9697 22.4087 30.615 24 30.615Z" fill="#FFBC48"/>
<path fill-rule="evenodd" clip-rule="evenodd" d="M24 6.11499C24.5304 6.11499 25.0391 6.33009 25.4142 6.71298C25.7893 7.09587 26 7.61517 26 8.15666V10.3412C28.9924 10.7814 31.7648 12.1987 33.9026 14.3811C36.0404 16.5634 37.4288 19.3936 37.86 22.4483H40C40.5304 22.4483 41.0391 22.6634 41.4142 23.0463C41.7893 23.4292 42 23.9485 42 24.49C42 25.0315 41.7893 25.5508 41.4142 25.9337C41.0391 26.3166 40.5304 26.5317 40 26.5317H37.86C37.4288 29.5864 36.0404 32.4166 33.9026 34.5989C31.7648 36.7813 28.9924 38.1985 26 38.6387V40.8233C26 41.3648 25.7893 41.8841 25.4142 42.267C25.0391 42.6499 24.5304 42.865 24 42.865C23.4696 42.865 22.9609 42.6499 22.5858 42.267C22.2107 41.8841 22 41.3648 22 40.8233V38.6387C19.0076 38.1985 16.2352 36.7813 14.0974 34.5989C11.9596 32.4166 10.5712 29.5864 10.14 26.5317H8C7.46957 26.5317 6.96086 26.3166 6.58579 25.9337C6.21071 25.5508 6 25.0315 6 24.49C6 23.9485 6.21071 23.4292 6.58579 23.0463C6.96086 22.6634 7.46957 22.4483 8 22.4483H10.14C10.5728 19.3942 11.9616 16.5649 14.0991 14.3828C16.2367 12.2008 19.0082 10.783 22 10.3412V8.15666C22 7.61517 22.2107 7.09587 22.5858 6.71298C22.9609 6.33009 23.4696 6.11499 24 6.11499ZM14 24.49C14 21.7826 15.0536 19.186 16.9289 17.2716C18.8043 15.3572 21.3478 14.2817 24 14.2817C26.6522 14.2817 29.1957 15.3572 31.0711 17.2716C32.9464 19.186 34 21.7826 34 24.49C34 27.1974 32.9464 29.7939 31.0711 31.7084C29.1957 33.6228 26.6522 34.6983 24 34.6983C21.3478 34.6983 18.8043 33.6228 16.9289 31.7084C15.0536 29.7939 14 27.1974 14 24.49Z" fill="#FFBC48"/>
</svg>
