<svg width="48" height="49" viewBox="0 0 48 49" fill="none" xmlns="http://www.w3.org/2000/svg">
<path fill-rule="evenodd" clip-rule="evenodd" d="M16 14.2917C16 12.1257 16.8429 10.0485 18.3431 8.51696C19.8434 6.98541 21.8783 6.125 24 6.125C26.1217 6.125 28.1566 6.98541 29.6569 8.51696C31.1571 10.0485 32 12.1257 32 14.2917C32 16.4576 31.1571 18.5348 29.6569 20.0664C28.1566 21.5979 26.1217 22.4583 24 22.4583C21.8783 22.4583 19.8434 21.5979 18.3431 20.0664C16.8429 18.5348 16 16.4576 16 14.2917ZM16 26.5417C13.3478 26.5417 10.8043 27.6172 8.92893 29.5316C7.05357 31.4461 6 34.0426 6 36.75C6 38.3745 6.63214 39.9324 7.75736 41.081C8.88258 42.2297 10.4087 42.875 12 42.875H36C37.5913 42.875 39.1174 42.2297 40.2426 41.081C41.3679 39.9324 42 38.3745 42 36.75C42 34.0426 40.9464 31.4461 39.0711 29.5316C37.1957 27.6172 34.6522 26.5417 32 26.5417H16Z" fill="white"/>
</svg>
