<svg width="23" height="20" viewBox="0 0 23 20" fill="none" xmlns="http://www.w3.org/2000/svg">
<path d="M22.8879 15.7293L17.306 3.2293C17.1075 2.78477 16.6751 2.5 16.1991 2.5H12.3023L12.4001 3.40469C12.4201 3.58906 12.2719 3.75 12.0822 3.75H10.9179C10.7282 3.75 10.5801 3.58906 10.6 3.40469L10.6979 2.5H6.80103C6.32466 2.5 5.89221 2.78477 5.69376 3.2293L0.111865 15.7293C-0.257492 16.557 0.331883 17.5 1.21954 17.5H9.07947L9.49115 13.6844C9.52549 13.3664 9.79942 13.125 10.1264 13.125H12.8737C13.2007 13.125 13.4746 13.3664 13.509 13.6844L13.9206 17.5H21.7806C22.6682 17.5 23.2576 16.557 22.8879 15.7293ZM10.398 5.27969C10.4063 5.20289 10.4433 5.13181 10.502 5.08016C10.5607 5.02852 10.6369 4.99996 10.7158 5H12.2847C12.448 5 12.5854 5.1207 12.6025 5.27969L12.7862 6.98203C12.8162 7.25898 12.5942 7.5 12.3099 7.5H10.6911C10.4064 7.5 10.1847 7.25898 10.2147 6.98203L10.398 5.27969ZM12.6037 11.875H10.396C10.0166 11.875 9.72075 11.5535 9.76068 11.1844L9.96313 9.30938C9.99747 8.99141 10.2714 8.75 10.5984 8.75H12.4013C12.7283 8.75 13.0022 8.99141 13.0366 9.30938L13.239 11.1844C13.279 11.5535 12.9831 11.875 12.6037 11.875Z" fill="#313392"/>
</svg>
