<svg width="48" height="48" viewBox="0 0 48 48" fill="none" xmlns="http://www.w3.org/2000/svg">
<path d="M24 29.99C25.5913 29.99 27.1174 29.3579 28.2426 28.2326C29.3679 27.1074 30 25.5813 30 23.99C30 22.3987 29.3679 20.8726 28.2426 19.7473C27.1174 18.6221 25.5913 17.99 24 17.99C22.4087 17.99 20.8826 18.6221 19.7574 19.7473C18.6321 20.8726 18 22.3987 18 23.99C18 25.5813 18.6321 27.1074 19.7574 28.2326C20.8826 29.3579 22.4087 29.99 24 29.99Z" fill="white"/>
<path fill-rule="evenodd" clip-rule="evenodd" d="M24 5.98999C24.5304 5.98999 25.0391 6.2007 25.4142 6.57578C25.7893 6.95085 26 7.45956 26 7.98999V10.13C28.9924 10.5612 31.7648 11.9495 33.9026 14.0874C36.0404 16.2252 37.4288 18.9976 37.86 21.99H40C40.5304 21.99 41.0391 22.2007 41.4142 22.5758C41.7893 22.9508 42 23.4596 42 23.99C42 24.5204 41.7893 25.0291 41.4142 25.4042C41.0391 25.7793 40.5304 25.99 40 25.99H37.86C37.4288 28.9824 36.0404 31.7548 33.9026 33.8926C31.7648 36.0304 28.9924 37.4188 26 37.85V39.99C26 40.5204 25.7893 41.0291 25.4142 41.4042C25.0391 41.7793 24.5304 41.99 24 41.99C23.4696 41.99 22.9609 41.7793 22.5858 41.4042C22.2107 41.0291 22 40.5204 22 39.99V37.85C19.0076 37.4188 16.2352 36.0304 14.0974 33.8926C11.9596 31.7548 10.5712 28.9824 10.14 25.99H8C7.46957 25.99 6.96086 25.7793 6.58579 25.4042C6.21071 25.0291 6 24.5204 6 23.99C6 23.4596 6.21071 22.9508 6.58579 22.5758C6.96086 22.2007 7.46957 21.99 8 21.99H10.14C10.5728 18.9982 11.9616 16.2266 14.0991 14.0891C16.2367 11.9516 19.0082 10.5628 22 10.13V7.98999C22 7.45956 22.2107 6.95085 22.5858 6.57578C22.9609 6.2007 23.4696 5.98999 24 5.98999ZM14 23.99C14 21.3378 15.0536 18.7943 16.9289 16.9189C18.8043 15.0436 21.3478 13.99 24 13.99C26.6522 13.99 29.1957 15.0436 31.0711 16.9189C32.9464 18.7943 34 21.3378 34 23.99C34 26.6422 32.9464 29.1857 31.0711 31.0611C29.1957 32.9364 26.6522 33.99 24 33.99C21.3478 33.99 18.8043 32.9364 16.9289 31.0611C15.0536 29.1857 14 26.6422 14 23.99Z" fill="white"/>
</svg>
