<svg width="38" height="38" viewBox="0 0 38 38" fill="none" xmlns="http://www.w3.org/2000/svg">
<path d="M22.6701 34.3232C23.2187 34.8649 23.1294 35.8148 22.4475 36.179C16.6796 39.2815 9.33107 38.3989 4.46098 33.5287C-0.407915 28.6597 -1.29171 21.318 1.81197 15.5432C2.17497 14.8682 3.1249 14.7789 3.66766 15.3205L12.3373 23.9903L14.3704 21.9571C14.3194 21.7634 14.2521 21.5859 14.2521 21.3772C14.2522 20.9074 14.3915 20.4481 14.6525 20.0575C14.9135 19.6669 15.2845 19.3625 15.7185 19.1827C16.1525 19.003 16.6301 18.9559 17.0909 19.0476C17.5516 19.1392 17.9749 19.3655 18.3071 19.6977C18.6392 20.0299 18.8655 20.4531 18.9571 20.9139C19.0487 21.3746 19.0017 21.8522 18.8219 22.2862C18.6421 22.7203 18.3377 23.0912 17.9471 23.3522C17.5565 23.6132 17.0972 23.7525 16.6274 23.7525C16.4199 23.7525 16.2412 23.6864 16.0487 23.6342L14.0143 25.6686L22.6701 34.3232ZM37.9982 22.4836C38.0073 22.6455 37.9833 22.8075 37.9278 22.9598C37.8723 23.1121 37.7864 23.2515 37.6753 23.3695C37.5642 23.4876 37.4302 23.5818 37.2816 23.6464C37.1329 23.7111 36.9727 23.7448 36.8106 23.7456H34.4271C34.1258 23.7446 33.8362 23.629 33.6171 23.4222C33.398 23.2154 33.2659 22.9329 33.2476 22.6321C32.6909 13.0194 24.9711 5.2253 15.3655 4.7057C15.0638 4.68962 14.7798 4.55803 14.5725 4.3382C14.3652 4.11837 14.2504 3.82718 14.2521 3.52502V1.17986C14.2527 1.01773 14.2864 0.857437 14.351 0.708736C14.4156 0.560035 14.5098 0.426043 14.6279 0.314922C14.7459 0.2038 14.8854 0.117876 15.0377 0.0623828C15.19 0.00688953 15.3521 -0.0170108 15.5139 -0.00786243C27.6283 0.630122 37.3673 10.3692 37.9982 22.4836ZM30.8723 22.4616C30.8834 22.6256 30.8607 22.7902 30.8057 22.9451C30.7506 23.1001 30.6644 23.2421 30.5524 23.3624C30.4403 23.4827 30.3048 23.5788 30.1541 23.6447C30.0035 23.7106 29.8409 23.7449 29.6765 23.7456H27.2861C26.9889 23.7434 26.7032 23.6302 26.485 23.4283C26.2668 23.2265 26.1318 22.9504 26.1066 22.6542C25.594 16.9385 21.051 12.3444 15.3505 11.8758C15.0522 11.8544 14.7731 11.7209 14.5693 11.502C14.3655 11.2832 14.2522 10.9953 14.2521 10.6963V8.3128C14.252 8.14823 14.2859 7.98542 14.3516 7.83453C14.4173 7.68364 14.5134 7.54791 14.6339 7.43581C14.7543 7.32371 14.8966 7.23765 15.0519 7.183C15.2071 7.12835 15.3719 7.10628 15.5361 7.11818C23.7092 7.74911 30.2483 14.2882 30.8723 22.4616Z" fill="#FFBC48"/>
</svg>
