<svg width="29" height="29" viewBox="0 0 29 29" fill="none" xmlns="http://www.w3.org/2000/svg">
<path d="M12.6874 19.6959C12.5263 19.6959 12.3853 19.6407 12.2645 19.5303C12.1437 19.42 12.0833 19.2738 12.0833 19.0917V9.90837C12.0833 9.72712 12.1437 9.58131 12.2645 9.47095C12.3853 9.36059 12.5263 9.305 12.6874 9.3042C12.7277 9.3042 12.8687 9.36462 13.1103 9.48545L17.4905 13.8657C17.5912 13.9664 17.6617 14.067 17.702 14.1677C17.7423 14.2684 17.7624 14.3792 17.7624 14.5C17.7624 14.6209 17.7423 14.7316 17.702 14.8323C17.6617 14.933 17.5912 15.0337 17.4905 15.1344L13.1103 19.5146C13.0499 19.575 12.9847 19.6205 12.9146 19.6512C12.8445 19.6818 12.7688 19.6967 12.6874 19.6959Z" fill="#313392"/>
</svg>
