<svg width="1211" height="716" viewBox="0 0 1211 716" fill="none" xmlns="http://www.w3.org/2000/svg">
<rect width="1211" height="51" rx="5" fill="#EAEAFC"/>
<line y1="102.5" x2="1211" y2="102.5" stroke="#DEDEDE"/>
<line y1="153.5" x2="1211" y2="153.5" stroke="#DEDEDE"/>
<line y1="204.5" x2="1211" y2="204.5" stroke="#DEDEDE"/>
<line y1="255.5" x2="1211" y2="255.5" stroke="#DEDEDE"/>
<line y1="305.5" x2="1211" y2="305.5" stroke="#DEDEDE"/>
<line y1="356.5" x2="1211" y2="356.5" stroke="#DEDEDE"/>
<line y1="408.5" x2="1211" y2="408.5" stroke="#DEDEDE"/>
<line y1="459.5" x2="1211" y2="459.5" stroke="#DEDEDE"/>
<line y1="510.5" x2="1211" y2="510.5" stroke="#DEDEDE"/>
<line y1="561.5" x2="1211" y2="561.5" stroke="#DEDEDE"/>
<line y1="613.5" x2="1211" y2="613.5" stroke="#DEDEDE"/>
<line y1="664.5" x2="1211" y2="664.5" stroke="#DEDEDE"/>
<line y1="715.5" x2="1211" y2="715.5" stroke="#DEDEDE"/>
<rect x="1066.5" y="10.5" width="108" height="30" rx="15" stroke="#313392"/>
<rect x="905.5" y="10.5" width="127" height="30" rx="15" stroke="#313392"/>
<rect x="904.5" y="59.5" width="128" height="30" rx="15" stroke="#313392"/>
<rect x="1066.5" y="59.5" width="108" height="30" rx="15" fill="#44C100" fill-opacity="0.27" stroke="#31924E"/>
<rect x="904.5" y="113.5" width="128" height="30" rx="15" stroke="#313392"/>
<rect x="1066.5" y="113.5" width="108" height="30" rx="15" fill="#44C100" fill-opacity="0.27" stroke="#31924E"/>
<rect x="904.5" y="164.5" width="128" height="30" rx="15" stroke="#313392"/>
<rect x="1066.5" y="164.5" width="108" height="30" rx="15" fill="#44C100" fill-opacity="0.27" stroke="#31924E"/>
</svg>
