<svg width="38" height="38" viewBox="0 0 38 38" fill="none" xmlns="http://www.w3.org/2000/svg">
<path d="M22.6701 34.3231C23.2187 34.8647 23.1294 35.8147 22.4475 36.1789C16.6796 39.2813 9.33107 38.3987 4.46098 33.5286C-0.407915 28.6596 -1.29171 21.3179 1.81197 15.5431C2.17497 14.8681 3.1249 14.7788 3.66766 15.3204L12.3373 23.9901L14.3704 21.957C14.3194 21.7633 14.2521 21.5858 14.2521 21.377C14.2522 20.9072 14.3915 20.448 14.6525 20.0574C14.9135 19.6668 15.2845 19.3624 15.7185 19.1826C16.1525 19.0028 16.6301 18.9558 17.0909 19.0475C17.5516 19.1391 17.9749 19.3654 18.3071 19.6975C18.6392 20.0297 18.8655 20.453 18.9571 20.9137C19.0487 21.3745 19.0017 21.8521 18.8219 22.2861C18.6421 22.7201 18.3377 23.0911 17.9471 23.3521C17.5565 23.6131 17.0972 23.7524 16.6274 23.7524C16.4199 23.7524 16.2412 23.6863 16.0487 23.6341L14.0143 25.6684L22.6701 34.3231ZM37.9982 22.4835C38.0073 22.6453 37.9833 22.8073 37.9278 22.9596C37.8723 23.1119 37.7864 23.2513 37.6753 23.3694C37.5642 23.4874 37.4302 23.5816 37.2816 23.6463C37.1329 23.7109 36.9727 23.7447 36.8106 23.7454H34.4271C34.1258 23.7445 33.8362 23.6289 33.6171 23.4221C33.398 23.2152 33.2659 22.9327 33.2476 22.632C32.6909 13.0193 24.9711 5.22518 15.3655 4.70557C15.0638 4.6895 14.7798 4.55791 14.5725 4.33808C14.3652 4.11825 14.2504 3.82706 14.2521 3.5249V1.17974C14.2527 1.01761 14.2864 0.857315 14.351 0.708614C14.4156 0.559913 14.5098 0.425921 14.6279 0.3148C14.7459 0.203678 14.8854 0.117754 15.0377 0.0622607C15.19 0.00676746 15.3521 -0.0171329 15.5139 -0.00798451C27.6283 0.63 37.3673 10.3691 37.9982 22.4835ZM30.8723 22.4614C30.8834 22.6255 30.8607 22.7901 30.8057 22.945C30.7506 23.1 30.6644 23.242 30.5524 23.3623C30.4403 23.4826 30.3048 23.5787 30.1541 23.6446C30.0035 23.7105 29.8409 23.7448 29.6765 23.7454H27.2861C26.9889 23.7432 26.7032 23.6301 26.485 23.4282C26.2668 23.2263 26.1318 22.9502 26.1066 22.654C25.594 16.9384 21.051 12.3443 15.3505 11.8757C15.0522 11.8543 14.7731 11.7208 14.5693 11.5019C14.3655 11.2831 14.2522 10.9952 14.2521 10.6961V8.31268C14.252 8.14811 14.2859 7.9853 14.3516 7.83441C14.4173 7.68352 14.5134 7.54779 14.6339 7.43569C14.7543 7.32359 14.8966 7.23753 15.0519 7.18288C15.2071 7.12823 15.3719 7.10616 15.5361 7.11805C23.7092 7.74899 30.2483 14.2881 30.8723 22.4614Z" fill="white"/>
</svg>
