<svg width="48" height="49" viewBox="0 0 48 49" fill="none" xmlns="http://www.w3.org/2000/svg">
<path fill-rule="evenodd" clip-rule="evenodd" d="M16 14.5C16 12.3783 16.8429 10.3434 18.3431 8.84315C19.8434 7.34285 21.8783 6.5 24 6.5C26.1217 6.5 28.1566 7.34285 29.6569 8.84315C31.1571 10.3434 32 12.3783 32 14.5C32 16.6217 31.1571 18.6566 29.6569 20.1569C28.1566 21.6571 26.1217 22.5 24 22.5C21.8783 22.5 19.8434 21.6571 18.3431 20.1569C16.8429 18.6566 16 16.6217 16 14.5ZM16 26.5C13.3478 26.5 10.8043 27.5536 8.92893 29.4289C7.05357 31.3043 6 33.8478 6 36.5C6 38.0913 6.63214 39.6174 7.75736 40.7426C8.88258 41.8679 10.4087 42.5 12 42.5H36C37.5913 42.5 39.1174 41.8679 40.2426 40.7426C41.3679 39.6174 42 38.0913 42 36.5C42 33.8478 40.9464 31.3043 39.0711 29.4289C37.1957 27.5536 34.6522 26.5 32 26.5H16Z" fill="#FFBC48"/>
</svg>
