<svg width="801" height="434" viewBox="0 0 801 434" fill="none" xmlns="http://www.w3.org/2000/svg">
<path d="M11 395H791C795.971 395 800 399.029 800 404V424C800 428.971 795.971 433 791 433H11C6.02944 433 2 428.971 2 424V404C2 399.029 6.02944 395 11 395Z" fill="white" stroke="#AFAFAF" stroke-width="2"/>
<path d="M10 275H790C794.971 275 799 279.029 799 284V304C799 308.971 794.971 313 790 313H10C5.02944 313 1 308.971 1 304V284C1 279.029 5.02944 275 10 275Z" fill="white" stroke="#AFAFAF" stroke-width="2"/>
<path d="M444 1H789C793.971 1 798 5.02944 798 10V30C798 34.9706 793.971 39 789 39H444C439.029 39 435 34.9706 435 30V10C435 5.02944 439.029 1 444 1Z" fill="white" stroke="#AFAFAF" stroke-width="2"/>
<path d="M10 1H355C359.971 1 364 5.02944 364 10V30C364 34.9706 359.971 39 355 39H10C5.02944 39 1 34.9706 1 30V10C1 5.02944 5.02944 1 10 1Z" fill="white" stroke="#AFAFAF" stroke-width="2"/>
<path d="M10 131H355C359.971 131 364 135.029 364 140V160C364 164.971 359.971 169 355 169H10C5.02944 169 1 164.971 1 160V140C1 135.029 5.02944 131 10 131Z" fill="white" stroke="#AFAFAF" stroke-width="2"/>
<path d="M444 133H789C793.971 133 798 137.029 798 142V162C798 166.971 793.971 171 789 171H444C439.029 171 435 166.971 435 162V142C435 137.029 439.029 133 444 133Z" fill="white" stroke="#AFAFAF" stroke-width="2"/>
</svg>
